# xmcd
#
# Track frame offsets:
#       150
#       13210
#       23410
#       38197
#       51053
#       62146
#       70403
#       86206
#       97276
#       109868
#       119807
#       132459
#       146018
#       162356
#       175540
#       186881
#
# Disc length: 2650 seconds
#
# Revision: 3
# Processed by: cddbd v1.5.2PL0 Copyright (c) Steve Scherf et al.
# Submitted via: FreeDbEdit v0.1
#
DISCID=ed0a5810
DTITLE=Slim Whitman - The Best of Slim Whitman (Delta)
DYEAR=1998
DGENRE=Country
TTITLE0=Red Sails in the Sun Set
TTITLE1=Any Time
TTITLE2=Mocking Bird Hill
TTITLE3=Release Me
TTITLE4=The Wayward Wind
TTITLE5=Have You Ever Been Lonely
TTITLE6=Down in the Valley
TTITLE7=Singin' the Blues
TTITLE8=Half as Much
TTITLE9=Cara Mia
TTITLE10=Tennessee Waltz
TTITLE11=You Are My Sunshine
TTITLE12=The Three Bells
TTITLE13=Till I Waltz Again With You
TTITLE14=It Is a Secret
TTITLE15=Now Is the Hour
EXTD=\n YEAR: 1998
EXTT0=
EXTT1=
EXTT2=
EXTT3=
EXTT4=
EXTT5=
EXTT6=
EXTT7=
EXTT8=
EXTT9=
EXTT10=
EXTT11=
EXTT12=
EXTT13=
EXTT14=
EXTT15=
PLAYORDER=
